<svg xmlns="http://www.w3.org/2000/svg" viewBox="0 0 489 194"><defs><style>.cls-1 {
    fill: #e8e4df;
}
.cls-2 {
    fill: #387c9b;
}
.cls-3 {
    fill: #048d8a;
}
.cls-4 {
    fill: #fff;
}
.cls-5 {
    fill: #a8a098;
}
.cls-6 {
    fill: #4c463f;
}
#gift_1,
#gift_2,
#gift_3,
#jazz {
    opacity: 0;
    transform-origin: center
}
#eyes path,
#gift_1,
#happy_eye_blockers,
#jazz,
#mouth,
#mouth path,
#mouth_blocker,
#sad_eye_blockers {
    animation-delay: 2.67s
}
#jazz,
#tear {
    animation-fill-mode: forwards;
    animation-timing-function: cubic-bezier(.25, .1, .25, 1)
}
#jazz {
    transform: scale(-.8);
    animation-name: jazz;
    animation-duration: .3s
}
@keyframes tear {
    0% {
        transform: translateY(0);
        opacity: 1
    }
    100% {
        opacity: 0;
        transform: translateY(20px)
    }
}
@keyframes jazz {
    0% {
        opacity: 0;
        transform: scale(-.8)
    }
    100% {
        opacity: 1;
        transform: scale(1)
    }
}
@keyframes gift_3 {
    0% {
        transform: translateY(0);
        opacity: 0
    }
	33%{
		transform: translateY(0);
	}
	95%{
		transform: translateY(19px);
	}
    100% {
        opacity: 1;
        transform: translateY(16px)
    }
}
@keyframes gift_2 {
    0% {
        transform: translateY(0);
        opacity: 0
    }
	33%{
		transform: translateY(0);
	}
	95%{
		transform: translateY(28px);
	}
    100% {
        opacity: 1;
        transform: translateY(25px)
    }
}
@keyframes gift_1 {
    0% {
        transform: translateY(0);
        opacity: 0
    }
	33%{
		transform: translateY(0);
	}
    100% {
        opacity: 1;
        transform: translateY(14px)
    }
}
@keyframes nofrown {
    0% {
        opacity: 1
    }
    100% {
        opacity: 0;
        transform: translateY(-15px)
    }
}
@keyframes smile {
    0% {
        transform: translateY(0)
    }
    100% {
        transform: translateY(-10px)
    }
}
@keyframes nomoblue {
    0% {
        fill: #387c9b
    }
    100% {
        fill: #048d8a
    }
}
@keyframes nosad {
    0% {
        opacity: 1
    }
    100% {
        opacity: 0
    }
}
@keyframes happyeyes {
    0% {
        transform: translateY(0)
    }
    100% {
        transform: translateY(-18px)
    }
}
#eyes path,
#gift_1,
#gift_2,
#gift_3,
#happy_eye_blockers,
#mouth,
#mouth path,
#mouth_blocker,
#sad_eye_blockers {
    animation-duration: .3s;
    animation-fill-mode: forwards;
    animation-timing-function: cubic-bezier(.42, 0, .58, 1)
}
#happy_eye_blockers {
    animation-name: happyeyes
}
#sad_eye_blockers {
    animation-name: nosad
}
#eyes path,
#mouth path {
    animation-name: nomoblue
}
#mouth {
    animation-name: smile
}
#mouth_blocker {
    animation-name: nofrown
}
#gift_3 {
    animation-delay: 2.3s;
    animation-name: gift_3
}
#gift_2 {
    animation-delay: 2.4s;
    animation-name: gift_2
}
#gift_1 {
    animation-name: gift_1
}
#tear {
    animation-name: tear;
    animation-duration: 3s
}
</style></defs><title>empty cart</title><g id="background_gifts" data-name="background gifts"><path class="cls-1" d="M488.25,142.63a1,1,0,0,0-.31-.71,1,1,0,0,0-.73-.27l-5.5.23-1.21-22.7a1,1,0,0,0-1-.95l-9,.38,3.86-6.9a1.5,1.5,0,1,0-2.62-1.46l-3.82,6.83-6.35-5.94a1.5,1.5,0,0,0-2,2.19l5.88,5.5-9.65.41a1,1,0,0,0-1,1l.72,22.7-16.59.69a1,1,0,0,0-1,1l.33,34.67a1,1,0,0,0,1,1l48.67.33h0a1,1,0,0,0,1-1Zm-8.54-.67-10,.41-.91-21.5a1.49,1.49,0,0,0,.35-.21l9.4-.4Zm-22.93-20.77,10.7-.45a1.46,1.46,0,0,0,.33.16l.92,21.52-11.26.47ZM439.93,145.6l16.32-.68a1,1,0,0,0,.25.05h0a1,1,0,0,0,.32-.07l5.93-.25,1.3,33.82-23.84-.16Zm25.15,32.88-1.3-33.87,22.49-.93.63,35Z"/><path class="cls-1" d="M39.42,152.48H22.66l5-7.5a1.5,1.5,0,0,0-2.5-1.66l-4.92,7.38-6.38-7.21a1.5,1.5,0,0,0-2.25,2l6.2,7H1.08a1,1,0,0,0-1,1l.17,29.17a1,1,0,0,0,1,1h0l39.83-.83a1,1,0,0,0,1-1.06l-1.67-28.33A1,1,0,0,0,39.42,152.48Zm-37.33,2H19.6l.64,26.77-18,.38Zm19.15,26.75-.64-26.6a1.49,1.49,0,0,0,.48-.15H38.47L40,180.83Z"/><path class="cls-1" d="M399.57,81.13a1,1,0,0,0-.72-.28l-14.91.33,4.45-6.89a1.5,1.5,0,0,0-2.52-1.63L381.79,79l-6.45-5.51a1.5,1.5,0,1,0-1.95,2.28l6.47,5.53L365,81.6a1,1,0,0,0-1,1l.48,23.69h-8.9a1,1,0,0,0-1,1l.65,25.36-23.66-.56,15.36-14.43a1,1,0,0,0,0-1.41L294.65,60.63a1,1,0,0,0-.71-.31,1,1,0,0,0-.72.29l-5.57,5.51-.4-9.2a1.48,1.48,0,0,0-1.56-1.43A1.5,1.5,0,0,0,284.25,57l.4,9.25-7.38-2.72a1.5,1.5,0,0,0-1,2.82l8.12,3-7.47,7.39a1,1,0,0,0,0,1.4l7.49,7.89L257.49,87l-.7-41.15a1,1,0,0,0-1-1H228.28l6.18-8.5A1.5,1.5,0,1,0,232,34.6L225.19,44l-7.27-9a1.5,1.5,0,0,0-2.33,1.89L222,44.86h-12.3l-1.4-33.26a1,1,0,0,0-1-1l-14.47.28,6.12-8a1.5,1.5,0,0,0-2.39-1.82l-6.9,9.06L182.37,2a1.5,1.5,0,0,0-2.24,2L186.46,11l-16.24.31a1,1,0,0,0-1,1l1.07,33.15a1,1,0,0,0,1,1l12.6.33.69,25.88L168.65,55.3a1,1,0,0,0-1.4-.07l-8,7.1V53.48a1.5,1.5,0,0,0-3,0v9.14l-9.68-2.1a1.5,1.5,0,1,0-.64,2.93l9.69,2.11-9,8a1,1,0,0,0,0,1.45l18.15,18.46-15.88.37a.47.47,0,0,0-.41-.2.49.49,0,0,0-.39.22l-18.43.43a1,1,0,0,0-1,1v29h0l-8-.06a1,1,0,0,0-1,1l-.45,20.87-24.18.6L94,120a1,1,0,0,0-1-1l-10.83.38L89,107.74a1.5,1.5,0,1,0-2.58-1.53l-6.68,11.27-5.23-9.24a1.5,1.5,0,0,0-2.61,1.48l5.56,9.83L65.88,120a1,1,0,0,0-1,1l.48,27.57a1,1,0,0,0,1,1h0l13.24-.44.46,35.58a1,1,0,0,0,1,1h0l57.51-.47H190a1,1,0,0,0,1-1l-1-58.46a1,1,0,0,0-1-1l-17.08-.12-.46-30.26a1,1,0,0,0-.31-.71,1,1,0,0,0-.72-.28l-1.84,0,16.08-15.8.23,8.59a1,1,0,0,0,1,1l4.88.23-9,34a1,1,0,0,0,.71,1.22l37.14,9.77-7.86.41a1,1,0,0,0-.95,1l-1,49.43a1,1,0,0,0,1,1h33.76l37.06-.47,30.55.23h0a1,1,0,0,0,1-1l-.5-67,15.21,16-3.2-.08a1,1,0,0,0-1,1l-.5,49.5a1,1,0,0,0,1,1h0l43.5-.5h0l31-1.5a1,1,0,0,0,1-1l-1-28.5a1,1,0,0,0-1-1h-7.5V108.33l9,.15h0a1,1,0,0,0,1-1l-.37-25.62A1,1,0,0,0,399.57,81.13Zm-269,43.15v-28l17.38-.4,1.08,28.57-18.46-.13Zm-9.05,2,32.37.22.16,56.7H139.61l-.93-36.57a1,1,0,0,0-1-1l-16.54.41Zm-28.61,20.5-12,.3-.45-25.24a1.49,1.49,0,0,0,.45-.37L92,121Zm-26-24.82,11.73-.41a1.49,1.49,0,0,0,.78.43l.45,25.14-12.52.42ZM81.66,149l24.94-.62,1.28,35-25.77.21Zm27.22,34.39-1.29-35,12.34-.31a.94.94,0,0,0,.14,0,1.13,1.13,0,0,0,.18,0l16.46-.41.9,35.53Zm80.06-.25H155.08l-.16-56.7,15.57.11a1,1,0,0,0,.46.13h0a1,1,0,0,0,.44-.12l16.62.12Zm-19-58.59-19.88-.14L149,95.84l20.51-.48ZM158.25,65.89a1.51,1.51,0,0,0,.35-.19l16.16,18.85-8.15,8L148.7,74.36Zm17.22,18L159.28,65l8.56-7.59,16.35,17.89ZM293.89,62.74l50.94,54.19-6.91,6.49L287.45,69.36a1.49,1.49,0,0,0,.23-.48Zm-7.27,7.2,50.58,54.17-7.41,7-42.1-44.39a1,1,0,0,0-.25-.43,1,1,0,0,0-.36-.21L279,77.5Zm-5.36,80.44a1,1,0,0,0-1-1H266.53L267,131.9l20.93-.91a1,1,0,0,0,1-1l-.38-14.43,2.41.1-.81,66.18-7.44-.06Zm-36.17-1a1,1,0,0,0-1,1l-.46,31.81H238.4l-.8-48.78L265,132l-.45,17.43ZM240,89.6l24-.83,1.62,40.89a.49.49,0,0,0,.12.29l-23.89,1.26Zm46.52,25.5.36,13.93-20.35.88a.49.49,0,0,0,.09-.29L265,88.73,285.78,88l.67,25.89a.94.94,0,0,0,0,1.2ZM254.81,46.86l.69,40.2-16.57.58-11.18-.53L225.17,48h.12a1.5,1.5,0,0,0,1.17-.62l.36-.5Zm-48.45-34.2,1.36,32.2H190.08l-1.74-31.71.29.32a1.5,1.5,0,0,0,1.12.5h.06a1.5,1.5,0,0,0,1.13-.59l.33-.43Zm-35.08.67L187.33,13l1.74,31.84h-4.21l-12.58-.33Zm14.61,33.53h37.75l.45.56.05.05,2.6,39.59L186.9,85.19Zm6.63,41.67,17.11,5-8,32s0,0,0,0L184,120.93Zm10,37.28s0,0,0,0l8-31.92,18.08,5.31-9.44,31Zm18.32,5.89,10-32.94a1,1,0,0,0-.67-1.25l-33.6-9.87L238,89.59l1.85,41.72-19.56,1A1,1,0,0,0,220.86,131.7Zm-8.05,3,23.8-1.25.8,48.73H211.9Zm33.27,16.68h14.85l.62,30.58-15.92.2ZM262.55,182l-.62-30.56h17.37l1.34,30.33Zm28.54-.17.81-66.15,18.85.77.49,65.53Zm-2.65-68.29-.62-23.8,23.46,24.73ZM366,83.58l15.75-.35.7,23.08h-16Zm-9.41,24.73h16.15l.32,42.67h-4.65l-.18-17a1,1,0,0,0-1-1l-10-.24ZM381.27,153l1,27.3-13.49.65-.29-28Zm-55.53-19,20.34.48-.32,46.75-20.49.24Zm21,47.22.32-46.72,19.18.45.17,16.48a.9.9,0,0,0,0,1.1l.3,28.45Zm51-1.69-14.49.7-1-27.25h14.51ZM374.07,151l-.32-42.67h14.49V151Zm15.19-44.67h-5.79l-.7-23.1,15.12-.33.35,23.59Z"/></g><g id="dust"><path id="dust_3" data-name="dust 3" class="cls-2" d="M289.7,61.23A2.5,2.5,0,0,1,287.93,57a2.6,2.6,0,0,1,3.54,0,2.5,2.5,0,0,1-1.77,4.27Z"/><path id="dust_2" data-name="dust 2" class="cls-2" d="M232.7,52.9a2.77,2.77,0,0,1-.49,0,2.52,2.52,0,0,1-.47-.14,3.5,3.5,0,0,1-.43-.23,4,4,0,0,1-.38-.31,3.77,3.77,0,0,1-.31-.38,2.66,2.66,0,0,1-.23-.44,2.74,2.74,0,0,1-.14-.46,2.12,2.12,0,0,1,0-.49,2,2,0,0,1,0-.49,2.54,2.54,0,0,1,.14-.47,2.21,2.21,0,0,1,.23-.43,2.35,2.35,0,0,1,.31-.38,2.29,2.29,0,0,1,.38-.31,2.41,2.41,0,0,1,.9-.37,2.52,2.52,0,0,1,2.26.68,2.33,2.33,0,0,1,.31.38,2.9,2.9,0,0,1,.23.43,2.54,2.54,0,0,1,.14.47,2.65,2.65,0,0,1,0,.49,2.83,2.83,0,0,1,0,.49,2.74,2.74,0,0,1-.14.46,2.44,2.44,0,0,1-.54.82c-.12.11-.25.21-.38.31a3,3,0,0,1-.44.23,2.44,2.44,0,0,1-.46.14A2.78,2.78,0,0,1,232.7,52.9Z"/><path id="dust_1" data-name="dust 1" class="cls-2" d="M223.7,58.9a2.55,2.55,0,0,1-1.77-.73,3.77,3.77,0,0,1-.31-.38,2.66,2.66,0,0,1-.23-.44,2.49,2.49,0,0,1-.14-.46,2.83,2.83,0,0,1,0-.49,2.65,2.65,0,0,1,0-.49,2.54,2.54,0,0,1,.14-.47,2.21,2.21,0,0,1,.23-.43,2.35,2.35,0,0,1,.31-.38,2.6,2.6,0,0,1,3.54,0,2.53,2.53,0,0,1,.73,1.77,2.83,2.83,0,0,1,0,.49,2.49,2.49,0,0,1-.14.46,2.44,2.44,0,0,1-.54.82A2.55,2.55,0,0,1,223.7,58.9Z"/></g><g id="jazz"><path id="_6" data-name="6" class="cls-3" d="M332.19,123.14a1,1,0,0,1-.36-.07l-16.33-6.33a1,1,0,0,1,.72-1.87l16.33,6.33a1,1,0,0,1-.36,1.93Z"/><path id="_5" data-name="5" class="cls-3" d="M327.86,102a2.55,2.55,0,0,1-1.77-.73,3.69,3.69,0,0,1-.31-.38,2.59,2.59,0,0,1-.23-.44,2.69,2.69,0,0,1-.14-.46,2.78,2.78,0,0,1-.05-.49,2,2,0,0,1,.05-.49,2.5,2.5,0,0,1,.14-.47,2.16,2.16,0,0,1,.23-.43,1.91,1.91,0,0,1,.31-.38,1.94,1.94,0,0,1,.38-.31,2.25,2.25,0,0,1,.43-.23,2.6,2.6,0,0,1,.47-.14,2.3,2.3,0,0,1,1,0,2.49,2.49,0,0,1,.46.14,2.27,2.27,0,0,1,.43.23,1.94,1.94,0,0,1,.38.31,2.38,2.38,0,0,1,.32.38,2.86,2.86,0,0,1,.23.43,2.5,2.5,0,0,1,.14.47,2.65,2.65,0,0,1,0,.49,2.83,2.83,0,0,1,0,.49,2.69,2.69,0,0,1-.14.46,3.62,3.62,0,0,1-.23.44,3.81,3.81,0,0,1-.32.38A2.51,2.51,0,0,1,327.86,102Z"/><path id="_4" data-name="4" class="cls-3" d="M322.19,84.81a1,1,0,0,1-.45-1.89l11.33-5.67A1,1,0,0,1,334,79l-11.33,5.67A1,1,0,0,1,322.19,84.81Z"/><path id="_3" data-name="3" class="cls-3" d="M172.53,119.66a2.49,2.49,0,0,1-2.5-2.5,2.1,2.1,0,0,1,0-.49,2.69,2.69,0,0,1,.14-.46,2.21,2.21,0,0,1,.23-.43,1.92,1.92,0,0,1,.31-.38,2.6,2.6,0,0,1,3.54,0,3,3,0,0,1,.31.38,2.91,2.91,0,0,1,.23.43,2.69,2.69,0,0,1,.14.46,2.79,2.79,0,0,1,.05.49,2.49,2.49,0,0,1-2.5,2.5Z"/><path id="_2" data-name="2" class="cls-3" d="M175.86,94.48h-.11l-18-2a1,1,0,0,1,.22-2l18,2a1,1,0,0,1-.11,2Z"/><path id="_1" data-name="1" class="cls-3" d="M166.38,82a2.67,2.67,0,0,1-2.22-1.06,4.1,4.1,0,0,1-.2-4.07,3.29,3.29,0,0,1,2.77-2.07h0a3.19,3.19,0,0,1,3.47,3,3.79,3.79,0,0,1-3.26,4.18A3.85,3.85,0,0,1,166.38,82Zm.47-5.2c-.6,0-.95.65-1.07.91a2.22,2.22,0,0,0,0,2c.07.09.26.34.88.24a1.77,1.77,0,0,0,1.57-2,1.21,1.21,0,0,0-1.36-1.18Zm-.06-1h0Z"/></g><g id="gift_3" data-name="gift 3"><rect class="cls-4" x="261.24" y="19.14" width="19.53" height="44.42"/><path class="cls-3" d="M301.12,64.39a1,1,0,0,0,.07-.11,1,1,0,0,0,.07-.4l-1-45.51a1,1,0,0,0-.31-.7,1,1,0,0,0-.69-.27h0l-16.75.44,4.67-7.25A1.5,1.5,0,0,0,284.63,9l-5,7.71-7.95-6.55a1.5,1.5,0,1,0-1.91,2.31l6.68,5.51-15.24.21a1,1,0,0,0-1,1l.25,44.26a1,1,0,0,0,1,1l38.75.5h0a1,1,0,0,0,.38-.08,1,1,0,0,0,.12-.08,1,1,0,0,0,.2-.13h0A1,1,0,0,0,301.12,64.39ZM262.27,20.13l16.61-.23L279,20l.49,42.61-17-.22Z"/></g><g id="gift_2" data-name="gift 2"><rect class="cls-4" x="213.62" y="25.69" width="29.5" height="28.24"/><path class="cls-3" d="M261.65,54.88a1,1,0,0,0,0-.21h0l-.33-29.34a1,1,0,0,0-.3-.71,1,1,0,0,0-.71-.28L242,24.64a1,1,0,0,0-.44.12l-28.21-.12a1.18,1.18,0,0,0-.72.3,1,1,0,0,0-.29.72L213,54a1,1,0,0,0,1,1l46.65.67h.08a.94.94,0,0,0,.66-.28h0l0-.05a1,1,0,0,0,.18-.27A1,1,0,0,0,261.65,54.88ZM214.38,26.65l26.66.11.31,26.61L215,53Z"/></g><g id="gift_1" data-name="gift 1"><rect class="cls-4" x="220.24" y="17.69" width="14.25" height="19.75"/><path class="cls-3" d="M251.52,37.91l.25-20.25a1,1,0,0,0-1-1H238.25l5.56-6.16a1.5,1.5,0,1,0-2.23-2l-6.47,7.18-5.57-7.1a1.5,1.5,0,1,0-2.36,1.85l4.89,6.24H220a1,1,0,0,0-1,1l-.25,19.5a1,1,0,0,0,1,1l30.75.75h0a1,1,0,0,0,.37-.07l.07,0a1,1,0,0,0,.25-.16h0a1,1,0,0,0,.21-.3l0-.07A1,1,0,0,0,251.52,37.91ZM221,18.64h11.51l-.23,17.8-11.5-.28Z"/></g><g id="cart_fill" data-name="cart fill"><polygon id="white" class="cls-4" points="195.2 139.65 303.19 139.65 314.85 69.64 183.2 68.64 195.2 139.65"/></g><g id="eyes"><path id="right_eye" data-name="right eye" class="cls-2" d="M271.81,89.63c-1.73-3.15-5-4.92-9.29-5h-.18c-6.09,0-9.38,4.87-9.49,9.74-.12,5,3.15,10.24,9.61,10.43h.35a9.85,9.85,0,0,0,8.63-4.75A10.58,10.58,0,0,0,271.81,89.63Z"/><path id="left_eye" data-name="left eye" class="cls-2" d="M217.89,84.65a8.42,8.42,0,0,0-8.09,3.7,11.4,11.4,0,0,0-.57,11.29,9.4,9.4,0,0,0,8.48,5.19h.38a9.78,9.78,0,0,0,10.15-9.26C228.53,90.79,225.42,85.34,217.89,84.65Z"/></g><g id="sad_eye_blockers" data-name="sad eye blockers"><path id="right_sad_eye_blocker" data-name="right sad eye blocker" class="cls-4" d="M251.85,83.64H274V94.71h-1a1.49,1.49,0,1,0-3,0h0a7.12,7.12,0,0,1-7.44,7.09c-4.5-.13-6.71-3.62-6.74-7.1a1.49,1.49,0,0,0-3,0h-1Z"/><path id="left_sad_eye_blocker" data-name="left sad eye blocker" class="cls-4" d="M207,83.6h22.27V94.71h-1a1.51,1.51,0,1,0-3,0h0a6.83,6.83,0,0,1-7.41,7.09c-4.68-.14-6.86-3.89-6.78-7.5a1.55,1.55,0,0,0-3,.44h-1Z"/></g><g id="happy_eye_blockers" data-name="happy eye blockers"><path id="right_happy_eye_blocker" data-name="right happy eye blocker" class="cls-4" d="M251.85,123.82H274V112.73h-1a1.5,1.5,0,0,1-3,.06c.15-3.52-2.13-7.06-7.43-7.15-4.52-.07-6.8,3.58-6.72,7.19h0a1.5,1.5,0,1,1-3,0h-1Z"/><path id="left_happy_eye_blocker" data-name="left happy eye blocker" class="cls-4" d="M207,123.82h22.27V112.71h-1a1.51,1.51,0,0,1-3,0h0c-.09-3.3-2.43-6.6-7.41-7.06-4.53-.42-6.86,3.32-6.77,7.06h0a1.51,1.51,0,0,1-3,0h-1Z"/></g><g id="mouth"><path class="cls-2" d="M262.71,117.43c-1-.41-24.79-9.82-43.45.4a1.5,1.5,0,0,0-.74,1.65c0,.19,4.47,18.67,22,18.67s23.05-18.73,23.11-18.92A1.5,1.5,0,0,0,262.71,117.43Zm-22.23,17.72a17.38,17.38,0,0,1-12.81-5.23c4.5-2.94,14-7,26.07-.17A18.44,18.44,0,0,1,240.48,135.15Z"/></g><g id="mouth_blocker" data-name="mouth blocker"><path class="cls-4" d="M263.54,119.39s0,0,0,0a1.23,1.23,0,0,1-.14.25,1.11,1.11,0,0,1-.19.24,1.48,1.48,0,0,1-.47.31l-.23.08-.13,0a1.44,1.44,0,0,1-.79-.09l0,0c-.27-.1-1.76-.67-4.1-1.34-7-2-21.53-5-34,.28-.93.4-1.85.84-2.76,1.34l-.14.06a1.31,1.31,0,0,1-.28.09l-.3,0a1.43,1.43,0,0,1-.29,0h0a1.48,1.48,0,0,1-.53-.23,1.24,1.24,0,0,1-.22-.18.73.73,0,0,1-.14-.16.21.21,0,0,1,0-.06,1.44,1.44,0,0,1-.26-.84v20h45.17V118.83A1.47,1.47,0,0,1,263.54,119.39Z"/></g><g id="cart"><polygon id="shadow" class="cls-5" points="296.33 68.56 285.08 138.81 303.58 138.81 314.83 68.56 296.33 68.56"/><path id="outline" class="cls-6" d="M316.12,68.68a1.5,1.5,0,0,0-1.14-.54l-108.93-.83L200.61,36a1.5,1.5,0,0,0-1.36-2.11l-41.49-.25h0a1.5,1.5,0,0,0,0,3l19.08.11s0,.08,0,.12l5,31.7s0,0,0,0a1.49,1.49,0,0,0,.09.52l15.9,100.72a1.5,1.5,0,0,0,1.48,1.27l95.35.33h0a1.5,1.5,0,0,0,0-3L224,168.22l-4.7-27.08h84a1.5,1.5,0,0,0,1.48-1.25l11.66-70A1.5,1.5,0,0,0,316.12,68.68ZM293.66,86.89l8.07.29-2.5,15.46h-7.91a1,1,0,0,0,0,2h7.59l-2.6,16.13h-8.19a1,1,0,0,0,0,2H296l-2.48,15.38H195.85l-10.73-68,119.22.91L302.05,85.2l-8.32-.3a1,1,0,0,0-1,1A1,1,0,0,0,293.66,86.89ZM308,102.64h-6.69l2.48-15.38,6.73.24Zm-3,18.13h-6.6l2.6-16.12h6.68ZM184.64,67.15l-2.22-14.08,19.17.23,2.43,14Zm14.1-30.25,2.5,14.4-19.14-.23-2.26-14.29ZM222,168.22l-21.43-.07-4.26-27h21Zm80-30.07h-6.51L298,122.77h6.59Zm8.77-52.63-6.74-.25,2.29-14.19,6.85.05Z"/><g id="back_wheels" data-name="back wheels"><path id="right_back_wheel" data-name="right back wheel" class="cls-5" d="M284.4,174.86a8.64,8.64,0,0,0-8.34,3.62,10.42,10.42,0,0,0-1,10.36,8.53,8.53,0,0,0,7.76,4.67h.53c6.26,0,9.48-4.36,9.82-8.52C293.53,180.55,290.63,175.64,284.4,174.86Z"/><path id="left_back_wheel" data-name="left back wheel" class="cls-5" d="M238.26,182.39a10.28,10.28,0,0,0-11.25-8h0a9.58,9.58,0,0,0-8.39,6.06,10,10,0,0,0,1.79,10.13,8.6,8.6,0,0,0,6.51,2.79,12.52,12.52,0,0,0,3.39-.5C237.28,190.92,238.95,186,238.26,182.39Z"/></g><g id="front_wheels" data-name="front wheels"><g id="right_front_wheel" data-name="right front wheel"><path class="cls-4" d="M271.88,176.35c-9.93-1.24-12.38,15.24-1.33,15.67S282.54,177.68,271.88,176.35Z"/><path class="cls-6" d="M271,193.52h-.53a8.53,8.53,0,0,1-7.76-4.67,10.42,10.42,0,0,1,1-10.36,8.64,8.64,0,0,1,8.34-3.62h0c6.24.78,9.14,5.7,8.77,10.15C280.5,189.17,277.28,193.52,271,193.52Zm-.19-15.74a5.62,5.62,0,0,0-4.67,2.44,7.45,7.45,0,0,0-.75,7.3,5.59,5.59,0,0,0,5.19,3c4.69.22,7-2.76,7.25-5.75s-1.56-6.35-6.16-6.93h0A6.94,6.94,0,0,0,270.83,177.78Z"/></g><g id="left_front_wheel" data-name="left front wheel"><path class="cls-4" d="M214.83,175.9c-11.78,1.19-9.39,19,2.74,15.54S224.32,174.94,214.83,175.9Z"/><path class="cls-6" d="M214.59,193.38a8.6,8.6,0,0,1-6.51-2.79,10,10,0,0,1-1.79-10.13,9.58,9.58,0,0,1,8.39-6.06h0a10.28,10.28,0,0,1,11.25,8c.69,3.62-1,8.53-8,10.49A12.52,12.52,0,0,1,214.59,193.38Zm.39-16a6.6,6.6,0,0,0-5.89,4.15,7,7,0,0,0,1.21,7c1.57,1.72,4,2.23,6.87,1.42,4.25-1.2,6.43-3.83,5.82-7a7.26,7.26,0,0,0-8-5.56Z"/></g></g></g><g id="tear"><path class="cls-2" d="M273.5,102.34a1,1,0,0,0-1.48.49c-.31.81-2.94,8-.58,11.43a4.2,4.2,0,0,0,3.68,1.76c3.06,0,4-1.67,4.3-2.66C280.42,110,277,104.58,273.5,102.34Z"/></g></svg>